<mxfile host="app.diagrams.net" modified="2023-11-23T08:56:48.848Z" agent="Mozilla/5.0 (Windows NT 10.0; Win64; x64) AppleWebKit/537.36 (KHTML, like Gecko) Chrome/119.0.0.0 Safari/537.36" etag="o8f66GP2L-DZOHEGzxlf" version="22.1.3" type="device">
  <diagram name="Страница — 1" id="9tg6P661hlt4eCQGxgQV">
    <mxGraphModel dx="2099" dy="1992" grid="1" gridSize="10" guides="1" tooltips="1" connect="1" arrows="1" fold="1" page="1" pageScale="1" pageWidth="827" pageHeight="1169" math="0" shadow="0">
      <root>
        <mxCell id="0" />
        <mxCell id="1" parent="0" />
        <mxCell id="PdzYVzqQ1AcS_20Hq7-w-1" value="&lt;h3&gt;&lt;font style=&quot;font-size: 16px;&quot; face=&quot;Courier New&quot;&gt;users&lt;/font&gt;&lt;/h3&gt;" style="rounded=1;whiteSpace=wrap;html=1;strokeWidth=2;strokeColor=#00CC00;" parent="1" vertex="1">
          <mxGeometry x="880" y="-640" width="120" height="60" as="geometry" />
        </mxCell>
        <mxCell id="PdzYVzqQ1AcS_20Hq7-w-3" value="&lt;h3&gt;&lt;font face=&quot;Courier New&quot;&gt;&lt;span style=&quot;font-size: 16px;&quot;&gt;posts&lt;/span&gt;&lt;/font&gt;&lt;/h3&gt;" style="rounded=1;whiteSpace=wrap;html=1;fillColor=default;strokeWidth=2;strokeColor=#00CC00;" parent="1" vertex="1">
          <mxGeometry x="880" y="-390" width="120" height="60" as="geometry" />
        </mxCell>
        <mxCell id="7YE5lotZ48Wryl75GRR1-12" style="edgeStyle=orthogonalEdgeStyle;rounded=1;orthogonalLoop=1;jettySize=auto;html=1;exitX=0.5;exitY=1;exitDx=0;exitDy=0;entryX=0.5;entryY=0;entryDx=0;entryDy=0;" edge="1" parent="1" source="PdzYVzqQ1AcS_20Hq7-w-4" target="PdzYVzqQ1AcS_20Hq7-w-1">
          <mxGeometry relative="1" as="geometry" />
        </mxCell>
        <mxCell id="7YE5lotZ48Wryl75GRR1-17" style="edgeStyle=orthogonalEdgeStyle;rounded=0;orthogonalLoop=1;jettySize=auto;html=1;exitX=0;exitY=0.5;exitDx=0;exitDy=0;entryX=0;entryY=0.5;entryDx=0;entryDy=0;" edge="1" parent="1" source="PdzYVzqQ1AcS_20Hq7-w-4" target="PdzYVzqQ1AcS_20Hq7-w-3">
          <mxGeometry relative="1" as="geometry" />
        </mxCell>
        <mxCell id="PdzYVzqQ1AcS_20Hq7-w-4" value="&lt;h3&gt;&lt;font face=&quot;Courier New&quot;&gt;&lt;span style=&quot;font-size: 16px;&quot;&gt;comments&lt;/span&gt;&lt;/font&gt;&lt;/h3&gt;" style="rounded=1;whiteSpace=wrap;html=1;fillColor=default;strokeWidth=2;strokeColor=#00CC00;" parent="1" vertex="1">
          <mxGeometry x="880" y="-740" width="120" height="60" as="geometry" />
        </mxCell>
        <mxCell id="7YE5lotZ48Wryl75GRR1-15" style="edgeStyle=orthogonalEdgeStyle;rounded=1;orthogonalLoop=1;jettySize=auto;html=1;exitX=0.5;exitY=1;exitDx=0;exitDy=0;entryX=0.5;entryY=0;entryDx=0;entryDy=0;" edge="1" parent="1" source="PdzYVzqQ1AcS_20Hq7-w-5" target="PdzYVzqQ1AcS_20Hq7-w-3">
          <mxGeometry relative="1" as="geometry" />
        </mxCell>
        <mxCell id="PdzYVzqQ1AcS_20Hq7-w-5" value="&lt;h3&gt;&lt;font face=&quot;Courier New&quot;&gt;&lt;span style=&quot;font-size: 16px;&quot;&gt;feed&lt;/span&gt;&lt;/font&gt;&lt;/h3&gt;" style="rounded=1;whiteSpace=wrap;html=1;fillColor=default;strokeWidth=2;strokeColor=#00CC00;" parent="1" vertex="1">
          <mxGeometry x="880" y="-480" width="130" height="60" as="geometry" />
        </mxCell>
        <mxCell id="PdzYVzqQ1AcS_20Hq7-w-6" value="&lt;h3&gt;&lt;font face=&quot;Courier New&quot;&gt;&lt;span style=&quot;font-size: 16px;&quot;&gt;email&lt;/span&gt;&lt;/font&gt;&lt;/h3&gt;" style="rounded=1;whiteSpace=wrap;html=1;fillColor=default;strokeWidth=2;strokeColor=#00CC00;" parent="1" vertex="1">
          <mxGeometry x="707" y="-700" width="120" height="60" as="geometry" />
        </mxCell>
        <mxCell id="7YE5lotZ48Wryl75GRR1-16" style="edgeStyle=orthogonalEdgeStyle;rounded=1;orthogonalLoop=1;jettySize=auto;html=1;exitX=0.5;exitY=0;exitDx=0;exitDy=0;entryX=0.5;entryY=1;entryDx=0;entryDy=0;" edge="1" parent="1" source="PdzYVzqQ1AcS_20Hq7-w-7" target="PdzYVzqQ1AcS_20Hq7-w-3">
          <mxGeometry relative="1" as="geometry" />
        </mxCell>
        <mxCell id="PdzYVzqQ1AcS_20Hq7-w-7" value="&lt;h3&gt;&lt;font face=&quot;Courier New&quot;&gt;&lt;span style=&quot;font-size: 16px;&quot;&gt;search&lt;/span&gt;&lt;/font&gt;&lt;/h3&gt;" style="rounded=1;whiteSpace=wrap;html=1;fillColor=default;strokeWidth=2;strokeColor=#00CC00;" parent="1" vertex="1">
          <mxGeometry x="880" y="-300" width="120" height="60" as="geometry" />
        </mxCell>
        <mxCell id="PdzYVzqQ1AcS_20Hq7-w-8" value="&lt;h3&gt;&lt;font style=&quot;font-size: 16px;&quot; face=&quot;Courier New&quot;&gt;subscribe&lt;/font&gt;&lt;/h3&gt;" style="rounded=1;whiteSpace=wrap;html=1;fillColor=default;strokeWidth=2;strokeColor=#00CC00;" parent="1" vertex="1">
          <mxGeometry x="707" y="-630" width="120" height="60" as="geometry" />
        </mxCell>
        <mxCell id="7YE5lotZ48Wryl75GRR1-1" value="&lt;span style=&quot;color: rgb(51, 51, 51); font-family: &amp;quot;TT Norms Pro&amp;quot;, Arial, sans-serif; font-size: 16px; font-style: normal; font-variant-ligatures: none; font-variant-caps: normal; font-weight: 400; letter-spacing: normal; orphans: 2; text-align: start; text-indent: 0px; text-transform: none; widows: 2; word-spacing: 0px; -webkit-text-stroke-width: 0px; background-color: rgb(255, 255, 255); text-decoration-thickness: initial; text-decoration-style: initial; text-decoration-color: initial; float: none; display: inline !important;&quot;&gt;1.1. Регистрация новых пользователей.&lt;/span&gt;&lt;br style=&quot;box-sizing: inherit; color: rgb(51, 51, 51); font-family: &amp;quot;TT Norms Pro&amp;quot;, Arial, sans-serif; font-size: 16px; font-style: normal; font-variant-ligatures: none; font-variant-caps: normal; font-weight: 400; letter-spacing: normal; orphans: 2; text-align: start; text-indent: 0px; text-transform: none; widows: 2; word-spacing: 0px; -webkit-text-stroke-width: 0px; background-color: rgb(255, 255, 255); text-decoration-thickness: initial; text-decoration-style: initial; text-decoration-color: initial;&quot;&gt;&lt;span style=&quot;color: rgb(51, 51, 51); font-family: &amp;quot;TT Norms Pro&amp;quot;, Arial, sans-serif; font-size: 16px; font-style: normal; font-variant-ligatures: none; font-variant-caps: normal; font-weight: 400; letter-spacing: normal; orphans: 2; text-align: start; text-indent: 0px; text-transform: none; widows: 2; word-spacing: 0px; -webkit-text-stroke-width: 0px; background-color: rgb(255, 255, 255); text-decoration-thickness: initial; text-decoration-style: initial; text-decoration-color: initial; float: none; display: inline !important;&quot;&gt;1.2. Авторизация пользователей на&amp;nbsp;основе JWT.&lt;/span&gt;&lt;br style=&quot;box-sizing: inherit; color: rgb(51, 51, 51); font-family: &amp;quot;TT Norms Pro&amp;quot;, Arial, sans-serif; font-size: 16px; font-style: normal; font-variant-ligatures: none; font-variant-caps: normal; font-weight: 400; letter-spacing: normal; orphans: 2; text-align: start; text-indent: 0px; text-transform: none; widows: 2; word-spacing: 0px; -webkit-text-stroke-width: 0px; background-color: rgb(255, 255, 255); text-decoration-thickness: initial; text-decoration-style: initial; text-decoration-color: initial;&quot;&gt;&lt;span style=&quot;color: rgb(51, 51, 51); font-family: &amp;quot;TT Norms Pro&amp;quot;, Arial, sans-serif; font-size: 16px; font-style: normal; font-variant-ligatures: none; font-variant-caps: normal; font-weight: 400; letter-spacing: normal; orphans: 2; text-align: start; text-indent: 0px; text-transform: none; widows: 2; word-spacing: 0px; -webkit-text-stroke-width: 0px; background-color: rgb(255, 255, 255); text-decoration-thickness: initial; text-decoration-style: initial; text-decoration-color: initial; float: none; display: inline !important;&quot;&gt;1.3. Создание новых публикаций в&amp;nbsp;блоге разных видов: видео, текст, цитата, фото, ссылка.&lt;/span&gt;&lt;br style=&quot;box-sizing: inherit; color: rgb(51, 51, 51); font-family: &amp;quot;TT Norms Pro&amp;quot;, Arial, sans-serif; font-size: 16px; font-style: normal; font-variant-ligatures: none; font-variant-caps: normal; font-weight: 400; letter-spacing: normal; orphans: 2; text-align: start; text-indent: 0px; text-transform: none; widows: 2; word-spacing: 0px; -webkit-text-stroke-width: 0px; background-color: rgb(255, 255, 255); text-decoration-thickness: initial; text-decoration-style: initial; text-decoration-color: initial;&quot;&gt;&lt;span style=&quot;color: rgb(51, 51, 51); font-family: &amp;quot;TT Norms Pro&amp;quot;, Arial, sans-serif; font-size: 16px; font-style: normal; font-variant-ligatures: none; font-variant-caps: normal; font-weight: 400; letter-spacing: normal; orphans: 2; text-align: start; text-indent: 0px; text-transform: none; widows: 2; word-spacing: 0px; -webkit-text-stroke-width: 0px; background-color: rgb(255, 255, 255); text-decoration-thickness: initial; text-decoration-style: initial; text-decoration-color: initial; float: none; display: inline !important;&quot;&gt;1.4. Просмотр детальной информации о&amp;nbsp;публикации.&lt;/span&gt;&lt;br style=&quot;box-sizing: inherit; color: rgb(51, 51, 51); font-family: &amp;quot;TT Norms Pro&amp;quot;, Arial, sans-serif; font-size: 16px; font-style: normal; font-variant-ligatures: none; font-variant-caps: normal; font-weight: 400; letter-spacing: normal; orphans: 2; text-align: start; text-indent: 0px; text-transform: none; widows: 2; word-spacing: 0px; -webkit-text-stroke-width: 0px; background-color: rgb(255, 255, 255); text-decoration-thickness: initial; text-decoration-style: initial; text-decoration-color: initial;&quot;&gt;&lt;span style=&quot;color: rgb(51, 51, 51); font-family: &amp;quot;TT Norms Pro&amp;quot;, Arial, sans-serif; font-size: 16px; font-style: normal; font-variant-ligatures: none; font-variant-caps: normal; font-weight: 400; letter-spacing: normal; orphans: 2; text-align: start; text-indent: 0px; text-transform: none; widows: 2; word-spacing: 0px; -webkit-text-stroke-width: 0px; background-color: rgb(255, 255, 255); text-decoration-thickness: initial; text-decoration-style: initial; text-decoration-color: initial; float: none; display: inline !important;&quot;&gt;1.5. Редактирование публикаций в&amp;nbsp;блоге.&lt;/span&gt;&lt;br style=&quot;box-sizing: inherit; color: rgb(51, 51, 51); font-family: &amp;quot;TT Norms Pro&amp;quot;, Arial, sans-serif; font-size: 16px; font-style: normal; font-variant-ligatures: none; font-variant-caps: normal; font-weight: 400; letter-spacing: normal; orphans: 2; text-align: start; text-indent: 0px; text-transform: none; widows: 2; word-spacing: 0px; -webkit-text-stroke-width: 0px; background-color: rgb(255, 255, 255); text-decoration-thickness: initial; text-decoration-style: initial; text-decoration-color: initial;&quot;&gt;&lt;span style=&quot;color: rgb(51, 51, 51); font-family: &amp;quot;TT Norms Pro&amp;quot;, Arial, sans-serif; font-size: 16px; font-style: normal; font-variant-ligatures: none; font-variant-caps: normal; font-weight: 400; letter-spacing: normal; orphans: 2; text-align: start; text-indent: 0px; text-transform: none; widows: 2; word-spacing: 0px; -webkit-text-stroke-width: 0px; background-color: rgb(255, 255, 255); text-decoration-thickness: initial; text-decoration-style: initial; text-decoration-color: initial; float: none; display: inline !important;&quot;&gt;1.6. Удаление публикаций в&amp;nbsp;блоге.&lt;/span&gt;&lt;br style=&quot;box-sizing: inherit; color: rgb(51, 51, 51); font-family: &amp;quot;TT Norms Pro&amp;quot;, Arial, sans-serif; font-size: 16px; font-style: normal; font-variant-ligatures: none; font-variant-caps: normal; font-weight: 400; letter-spacing: normal; orphans: 2; text-align: start; text-indent: 0px; text-transform: none; widows: 2; word-spacing: 0px; -webkit-text-stroke-width: 0px; background-color: rgb(255, 255, 255); text-decoration-thickness: initial; text-decoration-style: initial; text-decoration-color: initial;&quot;&gt;&lt;span style=&quot;color: rgb(51, 51, 51); font-family: &amp;quot;TT Norms Pro&amp;quot;, Arial, sans-serif; font-size: 16px; font-style: normal; font-variant-ligatures: none; font-variant-caps: normal; font-weight: 400; letter-spacing: normal; orphans: 2; text-align: start; text-indent: 0px; text-transform: none; widows: 2; word-spacing: 0px; -webkit-text-stroke-width: 0px; background-color: rgb(255, 255, 255); text-decoration-thickness: initial; text-decoration-style: initial; text-decoration-color: initial; float: none; display: inline !important;&quot;&gt;1.7. Загрузка изображений для публикации в&amp;nbsp;блоге.&lt;/span&gt;&lt;br style=&quot;box-sizing: inherit; color: rgb(51, 51, 51); font-family: &amp;quot;TT Norms Pro&amp;quot;, Arial, sans-serif; font-size: 16px; font-style: normal; font-variant-ligatures: none; font-variant-caps: normal; font-weight: 400; letter-spacing: normal; orphans: 2; text-align: start; text-indent: 0px; text-transform: none; widows: 2; word-spacing: 0px; -webkit-text-stroke-width: 0px; background-color: rgb(255, 255, 255); text-decoration-thickness: initial; text-decoration-style: initial; text-decoration-color: initial;&quot;&gt;&lt;span style=&quot;color: rgb(51, 51, 51); font-family: &amp;quot;TT Norms Pro&amp;quot;, Arial, sans-serif; font-size: 16px; font-style: normal; font-variant-ligatures: none; font-variant-caps: normal; font-weight: 400; letter-spacing: normal; orphans: 2; text-align: start; text-indent: 0px; text-transform: none; widows: 2; word-spacing: 0px; -webkit-text-stroke-width: 0px; background-color: rgb(255, 255, 255); text-decoration-thickness: initial; text-decoration-style: initial; text-decoration-color: initial; float: none; display: inline !important;&quot;&gt;1.8. Комментирование публикаций в&amp;nbsp;блоге.&lt;/span&gt;&lt;br style=&quot;box-sizing: inherit; color: rgb(51, 51, 51); font-family: &amp;quot;TT Norms Pro&amp;quot;, Arial, sans-serif; font-size: 16px; font-style: normal; font-variant-ligatures: none; font-variant-caps: normal; font-weight: 400; letter-spacing: normal; orphans: 2; text-align: start; text-indent: 0px; text-transform: none; widows: 2; word-spacing: 0px; -webkit-text-stroke-width: 0px; background-color: rgb(255, 255, 255); text-decoration-thickness: initial; text-decoration-style: initial; text-decoration-color: initial;&quot;&gt;&lt;span style=&quot;color: rgb(51, 51, 51); font-family: &amp;quot;TT Norms Pro&amp;quot;, Arial, sans-serif; font-size: 16px; font-style: normal; font-variant-ligatures: none; font-variant-caps: normal; font-weight: 400; letter-spacing: normal; orphans: 2; text-align: start; text-indent: 0px; text-transform: none; widows: 2; word-spacing: 0px; -webkit-text-stroke-width: 0px; background-color: rgb(255, 255, 255); text-decoration-thickness: initial; text-decoration-style: initial; text-decoration-color: initial; float: none; display: inline !important;&quot;&gt;1.9. Лайки к&amp;nbsp;публикациям. Подсчёт количества лайков к&amp;nbsp;публикациям.&lt;/span&gt;&lt;br style=&quot;box-sizing: inherit; color: rgb(51, 51, 51); font-family: &amp;quot;TT Norms Pro&amp;quot;, Arial, sans-serif; font-size: 16px; font-style: normal; font-variant-ligatures: none; font-variant-caps: normal; font-weight: 400; letter-spacing: normal; orphans: 2; text-align: start; text-indent: 0px; text-transform: none; widows: 2; word-spacing: 0px; -webkit-text-stroke-width: 0px; background-color: rgb(255, 255, 255); text-decoration-thickness: initial; text-decoration-style: initial; text-decoration-color: initial;&quot;&gt;&lt;span style=&quot;color: rgb(51, 51, 51); font-family: &amp;quot;TT Norms Pro&amp;quot;, Arial, sans-serif; font-size: 16px; font-style: normal; font-variant-ligatures: none; font-variant-caps: normal; font-weight: 400; letter-spacing: normal; orphans: 2; text-align: start; text-indent: 0px; text-transform: none; widows: 2; word-spacing: 0px; -webkit-text-stroke-width: 0px; background-color: rgb(255, 255, 255); text-decoration-thickness: initial; text-decoration-style: initial; text-decoration-color: initial; float: none; display: inline !important;&quot;&gt;1.10. Пагинация для публикаций.&lt;/span&gt;&lt;br style=&quot;box-sizing: inherit; color: rgb(51, 51, 51); font-family: &amp;quot;TT Norms Pro&amp;quot;, Arial, sans-serif; font-size: 16px; font-style: normal; font-variant-ligatures: none; font-variant-caps: normal; font-weight: 400; letter-spacing: normal; orphans: 2; text-align: start; text-indent: 0px; text-transform: none; widows: 2; word-spacing: 0px; -webkit-text-stroke-width: 0px; background-color: rgb(255, 255, 255); text-decoration-thickness: initial; text-decoration-style: initial; text-decoration-color: initial;&quot;&gt;&lt;span style=&quot;color: rgb(51, 51, 51); font-family: &amp;quot;TT Norms Pro&amp;quot;, Arial, sans-serif; font-size: 16px; font-style: normal; font-variant-ligatures: none; font-variant-caps: normal; font-weight: 400; letter-spacing: normal; orphans: 2; text-align: start; text-indent: 0px; text-transform: none; widows: 2; word-spacing: 0px; -webkit-text-stroke-width: 0px; background-color: rgb(255, 255, 255); text-decoration-thickness: initial; text-decoration-style: initial; text-decoration-color: initial; float: none; display: inline !important;&quot;&gt;1.11. Получение списка публикаций.&lt;/span&gt;&lt;br style=&quot;box-sizing: inherit; color: rgb(51, 51, 51); font-family: &amp;quot;TT Norms Pro&amp;quot;, Arial, sans-serif; font-size: 16px; font-style: normal; font-variant-ligatures: none; font-variant-caps: normal; font-weight: 400; letter-spacing: normal; orphans: 2; text-align: start; text-indent: 0px; text-transform: none; widows: 2; word-spacing: 0px; -webkit-text-stroke-width: 0px; background-color: rgb(255, 255, 255); text-decoration-thickness: initial; text-decoration-style: initial; text-decoration-color: initial;&quot;&gt;&lt;span style=&quot;color: rgb(51, 51, 51); font-family: &amp;quot;TT Norms Pro&amp;quot;, Arial, sans-serif; font-size: 16px; font-style: normal; font-variant-ligatures: none; font-variant-caps: normal; font-weight: 400; letter-spacing: normal; orphans: 2; text-align: start; text-indent: 0px; text-transform: none; widows: 2; word-spacing: 0px; -webkit-text-stroke-width: 0px; background-color: rgb(255, 255, 255); text-decoration-thickness: initial; text-decoration-style: initial; text-decoration-color: initial; float: none; display: inline !important;&quot;&gt;1.12. Получение списка публикаций с&amp;nbsp;применением сортировки: по&amp;nbsp;популярности, дате создания, по&amp;nbsp;количеству лайков, по&amp;nbsp;количеству комментариев.&lt;/span&gt;&lt;br style=&quot;box-sizing: inherit; color: rgb(51, 51, 51); font-family: &amp;quot;TT Norms Pro&amp;quot;, Arial, sans-serif; font-size: 16px; font-style: normal; font-variant-ligatures: none; font-variant-caps: normal; font-weight: 400; letter-spacing: normal; orphans: 2; text-align: start; text-indent: 0px; text-transform: none; widows: 2; word-spacing: 0px; -webkit-text-stroke-width: 0px; background-color: rgb(255, 255, 255); text-decoration-thickness: initial; text-decoration-style: initial; text-decoration-color: initial;&quot;&gt;&lt;span style=&quot;color: rgb(51, 51, 51); font-family: &amp;quot;TT Norms Pro&amp;quot;, Arial, sans-serif; font-size: 16px; font-style: normal; font-variant-ligatures: none; font-variant-caps: normal; font-weight: 400; letter-spacing: normal; orphans: 2; text-align: start; text-indent: 0px; text-transform: none; widows: 2; word-spacing: 0px; -webkit-text-stroke-width: 0px; background-color: rgb(255, 255, 255); text-decoration-thickness: initial; text-decoration-style: initial; text-decoration-color: initial; float: none; display: inline !important;&quot;&gt;1.13. Репост публикаций.&lt;/span&gt;&lt;br style=&quot;box-sizing: inherit; color: rgb(51, 51, 51); font-family: &amp;quot;TT Norms Pro&amp;quot;, Arial, sans-serif; font-size: 16px; font-style: normal; font-variant-ligatures: none; font-variant-caps: normal; font-weight: 400; letter-spacing: normal; orphans: 2; text-align: start; text-indent: 0px; text-transform: none; widows: 2; word-spacing: 0px; -webkit-text-stroke-width: 0px; background-color: rgb(255, 255, 255); text-decoration-thickness: initial; text-decoration-style: initial; text-decoration-color: initial;&quot;&gt;&lt;span style=&quot;color: rgb(51, 51, 51); font-family: &amp;quot;TT Norms Pro&amp;quot;, Arial, sans-serif; font-size: 16px; font-style: normal; font-variant-ligatures: none; font-variant-caps: normal; font-weight: 400; letter-spacing: normal; orphans: 2; text-align: start; text-indent: 0px; text-transform: none; widows: 2; word-spacing: 0px; -webkit-text-stroke-width: 0px; background-color: rgb(255, 255, 255); text-decoration-thickness: initial; text-decoration-style: initial; text-decoration-color: initial; float: none; display: inline !important;&quot;&gt;1.14. Лента пользователя.&lt;/span&gt;&lt;br style=&quot;box-sizing: inherit; color: rgb(51, 51, 51); font-family: &amp;quot;TT Norms Pro&amp;quot;, Arial, sans-serif; font-size: 16px; font-style: normal; font-variant-ligatures: none; font-variant-caps: normal; font-weight: 400; letter-spacing: normal; orphans: 2; text-align: start; text-indent: 0px; text-transform: none; widows: 2; word-spacing: 0px; -webkit-text-stroke-width: 0px; background-color: rgb(255, 255, 255); text-decoration-thickness: initial; text-decoration-style: initial; text-decoration-color: initial;&quot;&gt;&lt;span style=&quot;color: rgb(51, 51, 51); font-family: &amp;quot;TT Norms Pro&amp;quot;, Arial, sans-serif; font-size: 16px; font-style: normal; font-variant-ligatures: none; font-variant-caps: normal; font-weight: 400; letter-spacing: normal; orphans: 2; text-align: start; text-indent: 0px; text-transform: none; widows: 2; word-spacing: 0px; -webkit-text-stroke-width: 0px; background-color: rgb(255, 255, 255); text-decoration-thickness: initial; text-decoration-style: initial; text-decoration-color: initial; float: none; display: inline !important;&quot;&gt;1.15. Категоризация публикаций по&amp;nbsp;тегам.&lt;/span&gt;&lt;br style=&quot;box-sizing: inherit; color: rgb(51, 51, 51); font-family: &amp;quot;TT Norms Pro&amp;quot;, Arial, sans-serif; font-size: 16px; font-style: normal; font-variant-ligatures: none; font-variant-caps: normal; font-weight: 400; letter-spacing: normal; orphans: 2; text-align: start; text-indent: 0px; text-transform: none; widows: 2; word-spacing: 0px; -webkit-text-stroke-width: 0px; background-color: rgb(255, 255, 255); text-decoration-thickness: initial; text-decoration-style: initial; text-decoration-color: initial;&quot;&gt;&lt;span style=&quot;color: rgb(51, 51, 51); font-family: &amp;quot;TT Norms Pro&amp;quot;, Arial, sans-serif; font-size: 16px; font-style: normal; font-variant-ligatures: none; font-variant-caps: normal; font-weight: 400; letter-spacing: normal; orphans: 2; text-align: start; text-indent: 0px; text-transform: none; widows: 2; word-spacing: 0px; -webkit-text-stroke-width: 0px; background-color: rgb(255, 255, 255); text-decoration-thickness: initial; text-decoration-style: initial; text-decoration-color: initial; float: none; display: inline !important;&quot;&gt;1.16. Рассылка почтовых уведомлений на&amp;nbsp;email о&amp;nbsp;появлении новых публикаций.&lt;/span&gt;&lt;br style=&quot;box-sizing: inherit; color: rgb(51, 51, 51); font-family: &amp;quot;TT Norms Pro&amp;quot;, Arial, sans-serif; font-size: 16px; font-style: normal; font-variant-ligatures: none; font-variant-caps: normal; font-weight: 400; letter-spacing: normal; orphans: 2; text-align: start; text-indent: 0px; text-transform: none; widows: 2; word-spacing: 0px; -webkit-text-stroke-width: 0px; background-color: rgb(255, 255, 255); text-decoration-thickness: initial; text-decoration-style: initial; text-decoration-color: initial;&quot;&gt;&lt;span style=&quot;color: rgb(51, 51, 51); font-family: &amp;quot;TT Norms Pro&amp;quot;, Arial, sans-serif; font-size: 16px; font-style: normal; font-variant-ligatures: none; font-variant-caps: normal; font-weight: 400; letter-spacing: normal; orphans: 2; text-align: start; text-indent: 0px; text-transform: none; widows: 2; word-spacing: 0px; -webkit-text-stroke-width: 0px; background-color: rgb(255, 255, 255); text-decoration-thickness: initial; text-decoration-style: initial; text-decoration-color: initial; float: none; display: inline !important;&quot;&gt;1.17. Поиск публикаций по&amp;nbsp;названию.&lt;/span&gt;&lt;br style=&quot;box-sizing: inherit; color: rgb(51, 51, 51); font-family: &amp;quot;TT Norms Pro&amp;quot;, Arial, sans-serif; font-size: 16px; font-style: normal; font-variant-ligatures: none; font-variant-caps: normal; font-weight: 400; letter-spacing: normal; orphans: 2; text-align: start; text-indent: 0px; text-transform: none; widows: 2; word-spacing: 0px; -webkit-text-stroke-width: 0px; background-color: rgb(255, 255, 255); text-decoration-thickness: initial; text-decoration-style: initial; text-decoration-color: initial;&quot;&gt;&lt;span style=&quot;color: rgb(51, 51, 51); font-family: &amp;quot;TT Norms Pro&amp;quot;, Arial, sans-serif; font-size: 16px; font-style: normal; font-variant-ligatures: none; font-variant-caps: normal; font-weight: 400; letter-spacing: normal; orphans: 2; text-align: start; text-indent: 0px; text-transform: none; widows: 2; word-spacing: 0px; -webkit-text-stroke-width: 0px; background-color: rgb(255, 255, 255); text-decoration-thickness: initial; text-decoration-style: initial; text-decoration-color: initial; float: none; display: inline !important;&quot;&gt;1.18. Получение детальной информации о&amp;nbsp;пользователе.&lt;/span&gt;&lt;br style=&quot;box-sizing: inherit; color: rgb(51, 51, 51); font-family: &amp;quot;TT Norms Pro&amp;quot;, Arial, sans-serif; font-size: 16px; font-style: normal; font-variant-ligatures: none; font-variant-caps: normal; font-weight: 400; letter-spacing: normal; orphans: 2; text-align: start; text-indent: 0px; text-transform: none; widows: 2; word-spacing: 0px; -webkit-text-stroke-width: 0px; background-color: rgb(255, 255, 255); text-decoration-thickness: initial; text-decoration-style: initial; text-decoration-color: initial;&quot;&gt;&lt;span style=&quot;color: rgb(51, 51, 51); font-family: &amp;quot;TT Norms Pro&amp;quot;, Arial, sans-serif; font-size: 16px; font-style: normal; font-variant-ligatures: none; font-variant-caps: normal; font-weight: 400; letter-spacing: normal; orphans: 2; text-align: start; text-indent: 0px; text-transform: none; widows: 2; word-spacing: 0px; -webkit-text-stroke-width: 0px; background-color: rgb(255, 255, 255); text-decoration-thickness: initial; text-decoration-style: initial; text-decoration-color: initial; float: none; display: inline !important;&quot;&gt;1.19. Смена пароля пользователя.&lt;/span&gt;&lt;br style=&quot;box-sizing: inherit; color: rgb(51, 51, 51); font-family: &amp;quot;TT Norms Pro&amp;quot;, Arial, sans-serif; font-size: 16px; font-style: normal; font-variant-ligatures: none; font-variant-caps: normal; font-weight: 400; letter-spacing: normal; orphans: 2; text-align: start; text-indent: 0px; text-transform: none; widows: 2; word-spacing: 0px; -webkit-text-stroke-width: 0px; background-color: rgb(255, 255, 255); text-decoration-thickness: initial; text-decoration-style: initial; text-decoration-color: initial;&quot;&gt;&lt;span style=&quot;color: rgb(51, 51, 51); font-family: &amp;quot;TT Norms Pro&amp;quot;, Arial, sans-serif; font-size: 16px; font-style: normal; font-variant-ligatures: none; font-variant-caps: normal; font-weight: 400; letter-spacing: normal; orphans: 2; text-align: start; text-indent: 0px; text-transform: none; widows: 2; word-spacing: 0px; -webkit-text-stroke-width: 0px; background-color: rgb(255, 255, 255); text-decoration-thickness: initial; text-decoration-style: initial; text-decoration-color: initial; float: none; display: inline !important;&quot;&gt;1.20. Подписка на&amp;nbsp;обновления других пользователей.&lt;/span&gt;" style="text;whiteSpace=wrap;html=1;rounded=1;" vertex="1" parent="1">
          <mxGeometry x="-20" y="-720" width="560" height="480" as="geometry" />
        </mxCell>
        <mxCell id="7YE5lotZ48Wryl75GRR1-2" value="" style="shape=cylinder3;whiteSpace=wrap;html=1;boundedLbl=1;backgroundOutline=1;size=15;fillColor=#00FF00;shadow=0;rounded=1;" vertex="1" parent="1">
          <mxGeometry x="1090" y="-640" width="60" height="80" as="geometry" />
        </mxCell>
        <mxCell id="7YE5lotZ48Wryl75GRR1-3" value="" style="shape=cylinder3;whiteSpace=wrap;html=1;boundedLbl=1;backgroundOutline=1;size=15;fillColor=#3399FF;rounded=1;" vertex="1" parent="1">
          <mxGeometry x="1100" y="-400" width="60" height="80" as="geometry" />
        </mxCell>
        <mxCell id="7YE5lotZ48Wryl75GRR1-5" value="" style="shape=cylinder3;whiteSpace=wrap;html=1;boundedLbl=1;backgroundOutline=1;size=15;fillColor=#3399FF;rounded=1;" vertex="1" parent="1">
          <mxGeometry x="1090" y="-760" width="60" height="80" as="geometry" />
        </mxCell>
        <mxCell id="7YE5lotZ48Wryl75GRR1-6" style="edgeStyle=orthogonalEdgeStyle;rounded=1;orthogonalLoop=1;jettySize=auto;html=1;exitX=1;exitY=0.5;exitDx=0;exitDy=0;entryX=0;entryY=0;entryDx=0;entryDy=52.5;entryPerimeter=0;" edge="1" parent="1" source="PdzYVzqQ1AcS_20Hq7-w-4" target="7YE5lotZ48Wryl75GRR1-5">
          <mxGeometry relative="1" as="geometry" />
        </mxCell>
        <mxCell id="7YE5lotZ48Wryl75GRR1-7" style="edgeStyle=orthogonalEdgeStyle;rounded=1;orthogonalLoop=1;jettySize=auto;html=1;exitX=1;exitY=0.5;exitDx=0;exitDy=0;entryX=0;entryY=0.5;entryDx=0;entryDy=0;entryPerimeter=0;" edge="1" parent="1" source="PdzYVzqQ1AcS_20Hq7-w-1" target="7YE5lotZ48Wryl75GRR1-2">
          <mxGeometry relative="1" as="geometry" />
        </mxCell>
        <mxCell id="7YE5lotZ48Wryl75GRR1-8" style="edgeStyle=orthogonalEdgeStyle;rounded=1;orthogonalLoop=1;jettySize=auto;html=1;exitX=1;exitY=0.25;exitDx=0;exitDy=0;entryX=0;entryY=0.5;entryDx=0;entryDy=0;entryPerimeter=0;" edge="1" parent="1" source="PdzYVzqQ1AcS_20Hq7-w-3" target="7YE5lotZ48Wryl75GRR1-3">
          <mxGeometry relative="1" as="geometry" />
        </mxCell>
        <mxCell id="7YE5lotZ48Wryl75GRR1-10" style="edgeStyle=orthogonalEdgeStyle;rounded=1;orthogonalLoop=1;jettySize=auto;html=1;exitX=1;exitY=0.5;exitDx=0;exitDy=0;entryX=0;entryY=1;entryDx=0;entryDy=-15;entryPerimeter=0;" edge="1" parent="1" source="PdzYVzqQ1AcS_20Hq7-w-7" target="7YE5lotZ48Wryl75GRR1-3">
          <mxGeometry relative="1" as="geometry" />
        </mxCell>
        <mxCell id="7YE5lotZ48Wryl75GRR1-13" style="edgeStyle=orthogonalEdgeStyle;rounded=1;orthogonalLoop=1;jettySize=auto;html=1;exitX=1;exitY=0.5;exitDx=0;exitDy=0;entryX=0;entryY=0;entryDx=0;entryDy=52.5;entryPerimeter=0;" edge="1" parent="1" source="PdzYVzqQ1AcS_20Hq7-w-5" target="7YE5lotZ48Wryl75GRR1-3">
          <mxGeometry relative="1" as="geometry" />
        </mxCell>
      </root>
    </mxGraphModel>
  </diagram>
</mxfile>
